<svg width="55" height="65" viewBox="0 0 55 65" fill="none" xmlns="http://www.w3.org/2000/svg">
<path fill-rule="evenodd" clip-rule="evenodd" d="M37.4906 5.6422C37.7637 3.20276 36.0342 0.99998 33.5948 0.726908C31.1554 0.435631 28.9526 2.18329 28.6795 4.62273C28.3518 7.40806 28.8069 10.7395 29.3895 14.162C31.0097 14.6536 32.5753 15.3636 34.0317 16.201C35.5973 12.5054 37.1265 8.84624 37.4906 5.6422ZM54.6213 16.3466C53.6565 14.0892 51.035 13.0697 48.7776 14.0346C45.8102 15.3271 42.7336 17.8576 39.6388 20.4609C40.8039 21.6078 41.8962 22.9003 42.8246 24.3021C46.3382 23.8652 49.706 23.3372 52.3093 22.2085C54.5667 21.2073 55.6044 18.5858 54.6213 16.3466ZM47.1392 4.44068C45.173 2.9843 42.3877 3.38481 40.9313 5.35092C38.7103 8.33651 37.2176 12.7967 35.5973 17.1476C36.1435 17.5117 36.6532 17.8758 37.1447 18.2581C37.5088 18.5494 37.8911 18.8589 38.2734 19.1683C41.9872 16.3648 45.8466 13.6341 48.0676 10.6485C49.524 8.6824 49.1053 5.89707 47.1392 4.44068Z" fill="white"/>
<path d="M38.6921 40.0856C37.3268 41.5602 35.8704 42.9256 34.323 44.2545C32.1566 46.1296 29.9538 47.9501 27.7146 49.6978C25.3116 48.2232 23.5822 47.4768 23.2909 47.8591C23.036 48.205 24.0373 49.4793 25.8395 51.1359C19.7956 55.6325 13.4057 59.6012 6.54248 62.8598C5.46839 63.3696 4.3397 63.7337 3.22921 64.1342C2.93793 64.2434 2.62845 64.2434 2.50101 64.2616C0.753356 64.4618 0.225417 63.9885 0.298236 62.3865C0.516694 57.3984 2.0641 52.7198 3.66612 48.0593C4.10304 46.785 4.55816 45.5107 5.03148 44.2363C7.45272 45.7109 9.18217 46.4755 9.47345 46.0932C9.78293 45.6745 8.32654 43.9997 5.8871 41.9061C7.63476 37.3913 9.58267 32.9494 11.8765 28.6894C16.4641 32.0937 20.542 34.3329 20.9971 33.714C21.4522 33.095 18.0843 29.7999 13.4421 26.3592L13.2418 26.2136C14.0428 24.8482 14.8803 23.4829 15.7723 22.1539C16.8828 20.4791 18.2481 18.9499 19.5953 17.4571C21.3976 15.4728 23.7278 14.7992 26.3311 15.3818C34.6689 17.2386 40.458 22.0265 43.1887 30.2369C43.7348 31.9117 43.2433 33.5501 42.3877 35.0611C41.8051 36.0806 41.168 37.0454 40.458 37.9557C36.0524 34.7334 32.2294 32.6581 31.7925 33.2406C31.3738 33.8232 34.414 36.827 38.6921 40.0856Z" fill="white"/>
</svg>
